<svg width="800" height="600" viewBox="0 0 800 600" fill="none" xmlns="http://www.w3.org/2000/svg">
  <rect width="800" height="600" rx="36" fill="#171310"/>
  <circle cx="602" cy="144" r="118" fill="#D0A46D" fill-opacity="0.12"/>
  <path d="M0 452C79 432 155 405 230 357C322 297 380 223 452 165C542 92 635 48 800 14V600H0V452Z" fill="url(#a)" opacity="0.78"/>
  <path d="M95 490C177 434 254 408 334 394C444 375 532 397 636 448C690 475 738 487 800 492V600H95V490Z" fill="url(#b)"/>
  <path d="M519 150L522 456" stroke="#F1E1C7" stroke-width="6" stroke-linecap="round"/>
  <path d="M522 164L646 216L522 270V164Z" fill="#D8B180"/>
  <ellipse cx="519" cy="458" rx="56" ry="10" fill="#0F0D0B"/>
  <path d="M94 491C186 468 262 420 344 363C413 315 481 240 547 198" stroke="#F4E8D4" stroke-width="2.5" stroke-dasharray="1 14"/>
  <defs>
    <linearGradient id="a" x1="650" y1="32" x2="365" y2="401" gradientUnits="userSpaceOnUse">
      <stop stop-color="#BB925C"/>
      <stop offset="1" stop-color="#171310" stop-opacity="0"/>
    </linearGradient>
    <linearGradient id="b" x1="447" y1="390" x2="447" y2="600" gradientUnits="userSpaceOnUse">
      <stop stop-color="#A77E48"/>
      <stop offset="1" stop-color="#342619"/>
    </linearGradient>
  </defs>
</svg>
