<svg width="1200" height="1500" viewBox="0 0 1200 1500" fill="none" xmlns="http://www.w3.org/2000/svg">
  <rect width="1200" height="1500" rx="56" fill="#171310"/>
  <rect x="48" y="48" width="1104" height="1404" rx="42" stroke="rgba(214,180,126,0.35)"/>
  <path d="M0 1200C180 1120 290 1020 420 860C538 713 607 548 770 387C885 274 998 195 1200 110V1500H0V1200Z" fill="url(#goldGlow)" opacity="0.75"/>
  <circle cx="948" cy="278" r="188" fill="url(#sun)" opacity="0.9"/>
  <path d="M131 1094C221 1026 296 1002 420 984C521 969 603 968 697 922C810 866 877 782 981 717" stroke="#E6CAA0" stroke-width="3" stroke-linecap="round" stroke-dasharray="1 14" opacity="0.9"/>
  <path d="M95 1104C263 996 388 938 544 856C668 791 766 718 872 620C978 521 1052 427 1101 320" stroke="#F4E7CF" stroke-width="2.5" stroke-linecap="round" opacity="0.85"/>
  <path d="M0 1270H1200" stroke="rgba(255,255,255,0.08)"/>
  <path d="M86 1182C181 1178 283 1164 371 1134C459 1104 533 1056 615 1006C710 949 778 912 883 881C997 847 1092 846 1200 856" stroke="#AE8551" stroke-width="4" stroke-linecap="round"/>
  <g opacity="0.9">
    <rect x="160" y="820" width="170" height="350" rx="10" fill="#2A231D"/>
    <rect x="348" y="730" width="126" height="440" rx="10" fill="#211B16"/>
    <rect x="504" y="668" width="168" height="502" rx="10" fill="#241E18"/>
    <rect x="690" y="756" width="102" height="414" rx="10" fill="#1F1914"/>
    <rect x="820" y="604" width="194" height="566" rx="10" fill="#2A231D"/>
  </g>
  <path d="M913 653C913 617 941 588 976 588C1011 588 1040 617 1040 653V703H913V653Z" fill="#C9A26B"/>
  <path d="M933 566H1019V588H933V566Z" fill="#A77B44"/>
  <path d="M970 490H981V713H970V490Z" fill="#E7D4B8"/>
  <path d="M981 500L1050 534L981 568V500Z" fill="#F4E7CF"/>
  <path d="M92 1263C172 1196 256 1155 346 1140C466 1120 578 1138 683 1190C805 1251 891 1298 1014 1301C1083 1303 1134 1290 1196 1260V1500H92V1263Z" fill="url(#fairway)"/>
  <defs>
    <linearGradient id="goldGlow" x1="1001" y1="110" x2="427" y2="1106" gradientUnits="userSpaceOnUse">
      <stop stop-color="#D7B07B"/>
      <stop offset="1" stop-color="#7C5A31" stop-opacity="0"/>
    </linearGradient>
    <radialGradient id="sun" cx="0" cy="0" r="1" gradientUnits="userSpaceOnUse" gradientTransform="translate(948 278) rotate(90) scale(188)">
      <stop stop-color="#FAF0E1"/>
      <stop offset="1" stop-color="#D3AA73" stop-opacity="0.1"/>
    </radialGradient>
    <linearGradient id="fairway" x1="644" y1="1114" x2="644" y2="1500" gradientUnits="userSpaceOnUse">
      <stop stop-color="#A67B48"/>
      <stop offset="1" stop-color="#3B2B1B"/>
    </linearGradient>
  </defs>
</svg>
