<svg width="800" height="600" viewBox="0 0 800 600" fill="none" xmlns="http://www.w3.org/2000/svg">
  <rect width="800" height="600" rx="36" fill="#1A1410"/>
  <circle cx="596" cy="132" r="112" fill="#CFA46D" fill-opacity="0.16"/>
  <path d="M76 492C119 444 167 400 216 365C278 320 329 304 386 257C449 205 465 144 540 100C600 65 661 58 724 68" stroke="#E8D7BD" stroke-width="2.5" stroke-dasharray="1 13"/>
  <path d="M0 446C105 422 186 384 276 300C355 226 420 144 548 84C620 50 691 36 800 20V600H0V446Z" fill="url(#a)" opacity="0.72"/>
  <path d="M150 450C150 378 208 320 280 320H520C592 320 650 378 650 450V468H150V450Z" fill="#2B231D"/>
  <rect x="196" y="270" width="408" height="194" rx="18" fill="#100D0A" stroke="#B28752" stroke-width="2"/>
  <path d="M196 344H604" stroke="#2E251D" stroke-width="2"/>
  <path d="M263 220C290 238 310 264 319 292" stroke="#C9A06A" stroke-width="3" stroke-linecap="round"/>
  <path d="M536 220C509 238 489 264 480 292" stroke="#C9A06A" stroke-width="3" stroke-linecap="round"/>
  <path d="M330 240C350 258 365 280 373 298" stroke="#C9A06A" stroke-width="3" stroke-linecap="round"/>
  <path d="M469 240C449 258 434 280 426 298" stroke="#C9A06A" stroke-width="3" stroke-linecap="round"/>
  <defs>
    <linearGradient id="a" x1="683" y1="28" x2="316" y2="420" gradientUnits="userSpaceOnUse">
      <stop stop-color="#D3AB75"/>
      <stop offset="1" stop-color="#1A1410" stop-opacity="0"/>
    </linearGradient>
  </defs>
</svg>
